<svg width="54" height="16" viewBox="0 0 54 16" fill="none" xmlns="http://www.w3.org/2000/svg">
<path d="M8.608 6.448L3.28 8.4L8.608 10.336V12.336L0.992 9.44V7.36L8.608 4.464V6.448ZM15.8821 14.192C14.2821 14.192 13.0341 13.7493 12.1381 12.864C11.2528 11.9787 10.8101 10.7147 10.8101 9.072V2.8H13.4021V8.976C13.4021 10.9813 14.2341 11.984 15.8981 11.984C16.7088 11.984 17.3275 11.744 17.7541 11.264C18.1808 10.7733 18.3941 10.0107 18.3941 8.976V2.8H20.9541V9.072C20.9541 10.7147 20.5061 11.9787 19.6101 12.864C18.7248 13.7493 17.4821 14.192 15.8821 14.192ZM30.6571 11.6H25.4571L24.4651 14H21.8091L26.8011 2.8H29.3611L34.3691 14H31.6491L30.6571 11.6ZM29.8411 9.632L28.0651 5.344L26.2891 9.632H29.8411ZM43.4864 0.527999H45.7104L40.4304 15.6H38.2064L43.4864 0.527999ZM53.608 7.36V9.44L45.992 12.336V10.336L51.32 8.4L45.992 6.448V4.464L53.608 7.36Z" fill="white"/>
</svg>
